HIERARCHY
ROOT Hips
{
    OFFSET   0.000000   0.000000   0.000000
    CHANNELS 6 Xposition Yposition Zposition Zrotation Xrotation Yrotation
    JOINT Chest
    {
        OFFSET   0.000000   8.007230   0.000000
        CHANNELS 3 Zrotation Xrotation Yrotation
        JOINT Chest2
        {
            OFFSET   0.000000  22.077100   0.000000
            CHANNELS 3 Zrotation Xrotation Yrotation
            JOINT Neck
            {
                OFFSET   0.000000  23.255100   0.000000
                CHANNELS 3 Zrotation Xrotation Yrotation
                JOINT Head
                {
                    OFFSET   0.000000  14.370100   1.956600
                    CHANNELS 3 Zrotation Xrotation Yrotation
                    End Site
                    {
                        OFFSET   0.000000  19.566000   0.000000
                    }
                }
            }
            JOINT LeftCollar
            {
                OFFSET   3.911900  19.017000  -0.467063
                CHANNELS 3 Zrotation Xrotation Yrotation
                JOINT LeftShoulder
                {
                    OFFSET  10.383700   0.000000   0.000000
                    CHANNELS 3 Zrotation Xrotation Yrotation
                    JOINT LeftElbow
                    {
                        OFFSET  26.662100   0.001193   0.000980
                        CHANNELS 3 Zrotation Xrotation Yrotation
                        JOINT LeftWrist
                        {
                            OFFSET  28.869000  -0.000059  -0.000082
                            CHANNELS 3 Zrotation Xrotation Yrotation
                            JOINT LeftFinger0
                            {
                                OFFSET   2.044650  -2.323450   3.252850
                                CHANNELS 3 Zrotation Xrotation Yrotation
                                JOINT LeftFinger01
                                {
                                    OFFSET   3.088130   0.000000   0.000000
                                    CHANNELS 3 Zrotation Xrotation Yrotation
                                    JOINT LeftFinger02
                                    {
                                        OFFSET   2.639460   0.000000   0.000000
                                        CHANNELS 3 Zrotation Xrotation Yrotation
                                        End Site
                                        {
                                            OFFSET   2.582190   0.000000   0.000000
                                        }
                                    }
                                }
                            }
                            JOINT LeftFinger1
                            {
                                OFFSET   8.364480   0.000000   3.252850
                                CHANNELS 3 Zrotation Xrotation Yrotation
                                JOINT LeftFinger11
                                {
                                    OFFSET   4.646930   0.000000   0.000000
                                    CHANNELS 3 Zrotation Xrotation Yrotation
                                    JOINT LeftFinger12
                                    {
                                        OFFSET   2.323470   0.000000   0.000000
                                        CHANNELS 3 Zrotation Xrotation Yrotation
                                        End Site
                                        {
                                            OFFSET   2.273050   0.000000   0.000000
                                        }
                                    }
                                }
                            }
                            JOINT LeftFinger2
                            {
                                OFFSET   8.364490   0.000016   1.078090
                                CHANNELS 3 Zrotation Xrotation Yrotation
                                JOINT LeftFinger21
                                {
                                    OFFSET   5.111610   0.000000   0.000000
                                    CHANNELS 3 Zrotation Xrotation Yrotation
                                    JOINT LeftFinger22
                                    {
                                        OFFSET   2.788150   0.000016   0.000000
                                        CHANNELS 3 Zrotation Xrotation Yrotation
                                        End Site
                                        {
                                            OFFSET   2.727660   0.000000   0.000000
                                        }
                                    }
                                }
                            }
                            JOINT LeftFinger3
                            {
                                OFFSET   7.899780   0.000015  -1.078090
                                CHANNELS 3 Zrotation Xrotation Yrotation
                                JOINT LeftFinger31
                                {
                                    OFFSET   4.646930   0.000000   0.000000
                                    CHANNELS 3 Zrotation Xrotation Yrotation
                                    JOINT LeftFinger32
                                    {
                                        OFFSET   2.323470   0.000000   0.000000
                                        CHANNELS 3 Zrotation Xrotation Yrotation
                                        End Site
                                        {
                                            OFFSET   2.273050   0.000000   0.000000
                                        }
                                    }
                                }
                            }
                            JOINT LeftFinger4
                            {
                                OFFSET   7.435090   0.000000  -3.252850
                                CHANNELS 3 Zrotation Xrotation Yrotation
                                JOINT LeftFinger41
                                {
                                    OFFSET   3.717550   0.000000   0.000000
                                    CHANNELS 3 Zrotation Xrotation Yrotation
                                    JOINT LeftFinger42
                                    {
                                        OFFSET   1.858770   0.000000   0.000000
                                        CHANNELS 3 Zrotation Xrotation Yrotation
                                        End Site
                                        {
                                            OFFSET   1.818440   0.000000   0.000000
                                        }
                                    }
                                }
                            }
                        }
                    }
                }
            }
            JOINT RightCollar
            {
                OFFSET  -3.911910  19.017000  -0.467062
                CHANNELS 3 Zrotation Xrotation Yrotation
                JOINT RightShoulder
                {
                    OFFSET -10.383700   0.000014   0.000000
                    CHANNELS 3 Zrotation Xrotation Yrotation
                    JOINT RightElbow
                    {
                        OFFSET -26.662100   0.001225   0.001091
                        CHANNELS 3 Zrotation Xrotation Yrotation
                        JOINT RightWrist
                        {
                            OFFSET -28.869000  -0.000020  -0.000085
                            CHANNELS 3 Zrotation Xrotation Yrotation
                            JOINT RightFinger0
                            {
                                OFFSET  -2.044650  -2.323490   3.252850
                                CHANNELS 3 Zrotation Xrotation Yrotation
                                JOINT RightFinger01
                                {
                                    OFFSET  -3.088130   0.000000   0.000000
                                    CHANNELS 3 Zrotation Xrotation Yrotation
                                    JOINT RightFinger02
                                    {
                                        OFFSET  -2.639460   0.000000   0.000000
                                        CHANNELS 3 Zrotation Xrotation Yrotation
                                        End Site
                                        {
                                            OFFSET  -2.582190   0.000000   0.000000
                                        }
                                    }
                                }
                            }
                            JOINT RightFinger1
                            {
                                OFFSET  -8.364480   0.000000   3.252850
                                CHANNELS 3 Zrotation Xrotation Yrotation
                                JOINT RightFinger11
                                {
                                    OFFSET  -4.646930   0.000000   0.000000
                                    CHANNELS 3 Zrotation Xrotation Yrotation
                                    JOINT RightFinger12
                                    {
                                        OFFSET  -2.323470   0.000000   0.000000
                                        CHANNELS 3 Zrotation Xrotation Yrotation
                                        End Site
                                        {
                                            OFFSET  -2.273050   0.000000   0.000000
                                        }
                                    }
                                }
                            }
                            JOINT RightFinger2
                            {
                                OFFSET  -8.364480   0.000000   1.078090
                                CHANNELS 3 Zrotation Xrotation Yrotation
                                JOINT RightFinger21
                                {
                                    OFFSET  -5.111620   0.000000   0.000000
                                    CHANNELS 3 Zrotation Xrotation Yrotation
                                    JOINT RightFinger22
                                    {
                                        OFFSET  -2.788160   0.000000   0.000000
                                        CHANNELS 3 Zrotation Xrotation Yrotation
                                        End Site
                                        {
                                            OFFSET  -2.727660   0.000000   0.000000
                                        }
                                    }
                                }
                            }
                            JOINT RightFinger3
                            {
                                OFFSET  -7.899780   0.000000  -1.078090
                                CHANNELS 3 Zrotation Xrotation Yrotation
                                JOINT RightFinger31
                                {
                                    OFFSET  -4.646930   0.000000   0.000000
                                    CHANNELS 3 Zrotation Xrotation Yrotation
                                    JOINT RightFinger32
                                    {
                                        OFFSET  -2.323470   0.000000   0.000000
                                        CHANNELS 3 Zrotation Xrotation Yrotation
                                        End Site
                                        {
                                            OFFSET  -2.273050   0.000000   0.000000
                                        }
                                    }
                                }
                            }
                            JOINT RightFinger4
                            {
                                OFFSET  -7.435090   0.000000  -3.252850
                                CHANNELS 3 Zrotation Xrotation Yrotation
                                JOINT RightFinger41
                                {
                                    OFFSET  -3.717550   0.000000   0.000000
                                    CHANNELS 3 Zrotation Xrotation Yrotation
                                    JOINT RightFinger42
                                    {
                                        OFFSET  -1.858760   0.000000   0.000000
                                        CHANNELS 3 Zrotation Xrotation Yrotation
                                        End Site
                                        {
                                            OFFSET  -1.818440   0.000000   0.000000
                                        }
                                    }
                                }
                            }
                        }
                    }
                }
            }
        }
    }
    JOINT LeftHip
    {
        OFFSET   9.783030   0.000000   0.000000
        CHANNELS 3 Zrotation Xrotation Yrotation
        JOINT LeftKnee
        {
            OFFSET   0.000063 -41.789100   0.000608
            CHANNELS 3 Zrotation Xrotation Yrotation
            JOINT LeftAnkle
            {
                OFFSET   0.000048 -41.133200  -0.000184
                CHANNELS 3 Zrotation Xrotation Yrotation
                JOINT LeftToe
                {
                    OFFSET   0.000000  -6.358960  14.674500
                    CHANNELS 3 Zrotation Xrotation Yrotation
                    End Site
                    {
                        OFFSET   0.000000   0.000000   3.913200
                    }
                }
            }
        }
    }
    JOINT RightHip
    {
        OFFSET  -9.783030   0.000000   0.000000
        CHANNELS 3 Zrotation Xrotation Yrotation
        JOINT RightKnee
        {
            OFFSET   0.000071 -41.789100   0.001239
            CHANNELS 3 Zrotation Xrotation Yrotation
            JOINT RightAnkle
            {
                OFFSET   0.000037 -41.133200  -0.000166
                CHANNELS 3 Zrotation Xrotation Yrotation
                JOINT RightToe
                {
                    OFFSET   0.000000  -6.358960  14.674500
                    CHANNELS 3 Zrotation Xrotation Yrotation
                    End Site
                    {
                        OFFSET   0.000000   0.000000   3.913200
                    }
                }
            }
        }
    }
}
MOTION
Frames: 4
Frame Time:   0.016667
  1.234820  89.545000   1.358690  -2.958770  -7.043970  -2.069440   0.679343   4.159170   0.654748   1.316090   8.325580   1.264880   1.066370   1.135710  -0.028586   1.753670   2.300460   0.091203  -3.888850  -0.500246   0.198781 -75.440700  18.274500  -0.904365  -0.283996  -4.078260 -19.044400  15.429100 -13.948000   7.054560  41.538300  36.717300 -69.386200 -30.570000   0.005591   0.003376 -10.289800   0.006309   0.005689 -31.246300   3.986250  -6.536300 -25.751400  -0.000234   0.001300 -18.026000   0.001203  -0.008066 -28.761800  -1.501730   2.731960 -42.188400   0.003006   0.000641 -28.097500   0.005325   0.000715 -28.755500  -1.501710   2.731970 -42.150600  -0.002992  -0.007682 -28.072300   0.000810  -0.006556 -33.454400  -1.724320   2.603540 -50.240800   0.001985  -0.002292 -33.460400   0.005334  -0.004652   9.248520   0.856602   5.178390  71.307400   5.047550  -4.410860  -3.754540  -8.124130  14.830700 -13.223400 -15.782900  -2.063700 -51.107700  46.309000  89.358100  26.364000   0.000402  -0.001042   8.181970   0.001657  -0.001634  28.697200   9.386210  16.582700  24.601600  -0.005248   0.001549  17.221100   0.001996   0.000431  27.771700   5.514370  10.343600  34.025400  -0.000528   0.005848  22.661000  -0.005586   0.002785  26.972900   4.887080   9.492890  28.658400  -0.014142   0.002232  19.086500  -0.005925   0.011102  31.717600   0.945316   1.513310  47.595300  -0.007030   0.010296  31.698500  -0.002138   0.004130   3.013060  10.017000   3.352560   0.581813   0.170696   7.210800  -1.651300  -4.114590   2.057730  -0.000000   0.000000   0.000000   2.447410   8.816910  -5.705160  -0.126297   1.298630  -6.924890   0.414793  -3.936700   2.710180  -0.000000   0.000000   0.000000
  1.234770  89.545000   1.365330  -2.960250  -7.052110  -2.070110   0.679545   4.161740   0.651978   1.316780   8.330660   1.259440   1.073910   1.175580  -0.028548   1.766200   2.381100   0.066249  -3.893670  -0.493104   0.207231 -75.447000  18.294300  -0.904252  -0.291147  -4.091500 -19.044700  15.420900 -13.948100   7.052010  41.529100  36.708000 -69.389500 -30.571400   0.005583   0.003369 -10.289600   0.006318   0.005843 -31.258900   3.990130  -6.539850 -25.762000  -0.000236   0.001302 -18.033400   0.001202  -0.008066 -28.761900  -1.501730   2.731870 -42.205700   0.003005   0.000641 -28.109000   0.005324   0.000712 -28.755500  -1.501710   2.731880 -42.159200  -0.002985  -0.007676 -28.078000   0.000810  -0.006556 -33.459000  -1.724270   2.603560 -50.247500   0.001984  -0.002294 -33.464900   0.005333  -0.004654   9.254910   0.839409   5.197430  71.304400   5.057520  -4.368050  -3.787970  -8.159100  14.791700 -13.226900 -15.739500  -2.074190 -51.103900  46.309000  89.377600  26.352000   0.000402  -0.001040   8.175980   0.001652  -0.001650  28.695000   9.385540  16.585200  24.599700  -0.005241   0.001550  17.219900   0.001995   0.000426  27.771600   5.514490  10.343600  34.007000  -0.000521   0.005843  22.648800  -0.005590   0.002755  26.972700   4.887410   9.492330  28.642200  -0.014153   0.002237  19.075700  -0.005870   0.011103  31.707600   0.945517   1.516910  47.580300  -0.007030   0.010301  31.688500  -0.002134   0.004099   3.013350  10.037200   3.352790   0.581546   0.155020   7.210580  -1.650620  -4.109320   2.058750  -0.000000   0.000000   0.000000   2.448100   8.827900  -5.701080  -0.122318   1.302080  -6.924900   0.413530  -3.937460   2.708030  -0.000000   0.000000   0.000000
  1.234640  89.545100   1.375840  -2.964400  -7.068070  -2.074620   0.679911   4.166900   0.649077   1.317560   8.340930   1.253380   1.089530   1.243870  -0.028492   1.792160   2.519340   0.018241  -3.900780  -0.479690   0.215680 -75.456800  18.323200  -0.904185  -0.304351  -4.111180 -19.045200  15.405600 -13.948300   7.045500  41.511300  36.698700 -69.392900 -30.574700   0.005565   0.003357 -10.289300   0.006326   0.006056 -31.271200   3.995890  -6.545560 -25.772600  -0.000241   0.001307 -18.040800   0.001200  -0.008066 -28.761900  -1.501730   2.731790 -42.223000   0.003000   0.000642 -28.120500   0.005319   0.000705 -28.755500  -1.501710   2.731800 -42.167700  -0.002970  -0.007659 -28.083700   0.000809  -0.006553 -33.463500  -1.724200   2.603600 -50.254200   0.001981  -0.002300 -33.469300   0.005331  -0.004660   9.262330   0.810750   5.219100  71.296900   5.067830  -4.273500  -3.812760  -8.239750  14.731700 -13.245900 -15.661400  -2.099100 -51.100100  46.307500  89.397100  26.340000   0.000404  -0.001037   8.170000   0.001644  -0.001672  28.693300   9.383320  16.587700  24.597900  -0.005225   0.001554  17.218600   0.001991   0.000416  27.771600   5.514670  10.343600  33.976500  -0.000511   0.005833  22.628400  -0.005603   0.002686  26.972400   4.887740   9.491780  28.625900  -0.014180   0.002252  19.064800  -0.005761   0.011105  31.692400   0.945798   1.522660  47.557600  -0.007029   0.010312  31.673300  -0.002127   0.004029   3.014900  10.073400   3.353200   0.580404   0.129384   7.210360  -1.649380  -4.100720   2.063300  -0.000000   0.000000  -0.000000   2.449180   8.848330  -5.693530  -0.114371   1.307400  -6.924910   0.410158  -3.939240   2.703180  -0.000000   0.000000  -0.000000
  1.234440  89.545100   1.383310  -2.971420  -7.085330  -2.085190   0.681642   4.172270   0.648928   1.320870   8.351720   1.252660   1.109530   1.303150  -0.028455   1.825310   2.639630  -0.035668  -3.905040  -0.465426   0.214300 -75.461400  18.337000  -0.904307  -0.318475  -4.123710 -19.044600  15.386800 -13.942200   7.034200  41.509300  36.707300 -69.404400 -30.579600   0.005537   0.003350 -10.290100   0.006327   0.006138 -31.269900   3.999550  -6.550710 -25.772000  -0.000244   0.001312 -18.040400   0.001197  -0.012727 -28.761800  -1.502380   2.731810 -42.208400   0.002991   0.000643 -28.110800   0.005310   0.000694 -28.755500  -1.502360   2.731820 -42.150900  -0.002951  -0.007633 -28.072500   0.000803  -0.006550 -33.455700  -1.724130   2.603680 -50.242600   0.001973  -0.002308 -33.461600   0.005332  -0.004669   9.264310   0.786370   5.222150  71.285700   5.066160  -4.154730  -3.767610  -8.328260  14.685000 -13.308100 -15.566100  -2.123100 -50.951900  46.230800  89.272200  26.365600   0.000407  -0.001047   8.182810   0.001639  -0.001679  28.708100   9.381620  16.581500  24.608000  -0.005203   0.001568  17.225700   0.001982   0.000403  27.769200   5.514740  10.343600  33.946000  -0.000508   0.005823  22.608100  -0.005625   0.002588  26.972000   4.887590   9.497320  28.625900  -0.014224   0.002275  19.064800  -0.005621   0.011105  31.681900   0.945917   1.527630  47.542000  -0.007022   0.010329  31.662900  -0.002121   0.003930   3.018710  10.106900   3.353550   0.578028   0.110046   7.210510  -1.648140  -4.093940   2.072950  -0.000000   0.000000   0.000000   2.449600   8.869090  -5.683660  -0.104957   1.310020  -6.919600   0.404416  -3.941540   2.695760   0.000000   0.000000   0.000000
